#tb 0: 13333/200000
0,          0,          0,        1,    38400, 0x4c3fdc2f
0,          1,          1,        1,    38400, 0x11c9d0cb
0,          2,          2,        1,    38400, 0x6c37fd7f
0,          3,          3,        1,    38400, 0x7e6c9b93
0,          4,          4,        1,    38400, 0xc9d4c5f7
0,          5,          5,        1,    38400, 0x5038088a
0,          6,          6,        1,    38400, 0xa48411b6
0,          7,          7,        1,    38400, 0xb9b7e97b
0,          8,          8,        1,    38400, 0xce37e037
0,          9,          9,        1,    38400, 0x5df528da
0,         10,         10,        1,    38400, 0xe4e65876
0,         11,         11,        1,    38400, 0x5bf4a46e
0,         12,         12,        1,    38400, 0xee478c2a
0,         13,         13,        1,    38400, 0x51a555c2
0,         14,         14,        1,    38400, 0x30a4030a
0,         15,         15,        1,    38400, 0xb13802d6
0,         16,         16,        1,    38400, 0x45ef5482
0,         17,         17,        1,    38400, 0x00aef51b
0,         18,         18,        1,    38400, 0xe8a71d7e
0,         19,         19,        1,    38400, 0x3d185142
0,         20,         20,        1,    38400, 0x221f59ea
0,         21,         21,        1,    38400, 0x1ae13572
0,         22,         22,        1,    38400, 0xe498450e
0,         23,         23,        1,    38400, 0xe744747a
0,         24,         24,        1,    38400, 0x44ee3352
0,         25,         25,        1,    38400, 0x74187342
0,         26,         26,        1,    38400, 0xbee9656e
0,         27,         27,        1,    38400, 0x645c8d1a
0,         28,         28,        1,    38400, 0x443dde1e
0,         29,         29,        1,    38400, 0x012106fd
0,         30,         30,        1,    38400, 0x4bb86b82
0,         31,         31,        1,    38400, 0x152473ba
0,         32,         32,        1,    38400, 0xa5214ea2
0,         33,         33,        1,    38400, 0x9e8c7046
0,         34,         34,        1,    38400, 0xdd95a9ba
0,         35,         35,        1,    38400, 0x64c5f292
0,         36,         36,        1,    38400, 0xdd42a04a
0,         37,         37,        1,    38400, 0x6069359e
0,         38,         38,        1,    38400, 0x094bf60f
0,         39,         39,        1,    38400, 0x584217be
0,         40,         40,        1,    38400, 0x4c5ef453
0,         41,         41,        1,    38400, 0x7e83eeb7
0,         42,         42,        1,    38400, 0xaa57efb3
0,         43,         43,        1,    38400, 0x42b0a66f
0,         44,         44,        1,    38400, 0x371fdcbf
0,         45,         45,        1,    38400, 0xb8f1e1bf
0,         46,         46,        1,    38400, 0x45c91fa6
0,         47,         47,        1,    38400, 0x7508338e
0,         48,         48,        1,    38400, 0xb5dd91ab
0,         49,         49,        1,    38400, 0x0204b38f
0,         50,         50,        1,    38400, 0x8ae2da6f
0,         51,         51,        1,    38400, 0x926ad59f
0,         52,         52,        1,    38400, 0xf9c3234e
0,         53,         53,        1,    38400, 0xabcb00f6
0,         54,         54,        1,    38400, 0x2d1de7bb
0,         55,         55,        1,    38400, 0x332d39ce
0,         56,         56,        1,    38400, 0xcd767286
0,         57,         57,        1,    38400, 0xf3d046ae
0,         58,         58,        1,    38400, 0x7ccc8162
0,         59,         59,        1,    38400, 0x09f6997e
0,         60,         60,        1,    38400, 0x5fcc6536
0,         61,         61,        1,    38400, 0x9959a3b6
0,         62,         62,        1,    38400, 0x63a5dcd2
0,         63,         63,        1,    38400, 0x66deae96
0,         64,         64,        1,    38400, 0x6feb0b1d
0,         65,         65,        1,    38400, 0x2063c25e
0,         66,         66,        1,    38400, 0x617f93de
0,         67,         67,        1,    38400, 0x4251c806
0,         68,         68,        1,    38400, 0x702eb68e
0,         69,         69,        1,    38400, 0xe80b8ea6
0,         70,         70,        1,    38400, 0xa51ec1b2
0,         71,         71,        1,    38400, 0x8aa8af8a
0,         72,         72,        1,    38400, 0x9a260321
0,         73,         73,        1,    38400, 0x2c732c22
0,         74,         74,        1,    38400, 0x216ed6a2
0,         75,         75,        1,    38400, 0x5558326d
0,         76,         76,        1,    38400, 0x0cae4cf5
0,         77,         77,        1,    38400, 0xf0e02f3d
0,         78,         78,        1,    38400, 0xfddd061d
0,         79,         79,        1,    38400, 0x4563e9d6
0,         80,         80,        1,    38400, 0xc8ac10d1
0,         81,         81,        1,    38400, 0x97f8c3fa
0,         82,         82,        1,    38400, 0x86190eb1
0,         83,         83,        1,    38400, 0xc9022d65
0,         84,         84,        1,    38400, 0x345738d5
0,         85,         85,        1,    38400, 0x457ae80e
